<?xml version="1.0" encoding="utf-8"?>
<!-- Generator: Adobe Illustrator 19.0.0, SVG Export Plug-In . SVG Version: 6.00 Build 0)  -->
<svg version="1.1" id="Layer_1" xmlns="http://www.w3.org/2000/svg" xmlns:xlink="http://www.w3.org/1999/xlink" x="0px" y="0px"
	 viewBox="0 0 512 512" style="enable-background:new 0 0 512 512;" xml:space="preserve">
<style type="text/css">
	.st0{fill:#FABC3D;}
	.st1{fill:#F8E1C2;}
	.st2{fill:#84462D;}
	.st3{fill:#0C7367;}
	.st4{fill:#9C6144;}
	.st5{fill:#FCF1E2;}
</style>
<g id="XMLID_1_">
	<circle id="XMLID_3_" class="st0" cx="256" cy="256" r="256"/>
	<path id="XMLID_4_" class="st1" d="M106.3,404.9h297.7C371.8,348.2,179.6,291.4,106.3,404.9z"/>
	<path id="XMLID_5_" class="st2" d="M256,195.3c-4.7,0-8.7,0-13.4,0c-7.9,7.1-15,15-21.3,22.8c-35.4,46.5-51.2,109.5-56.7,136.3
		c22.8-10.2,47.3-15,72.5-15.8c1.6-38.6,5.5-83.5,16.5-115c3.2-9.5,7.1-16.5,10.2-22.1C261.5,200.1,258.4,197.7,256,195.3z"/>
	<path id="XMLID_6_" class="st3" d="M256,195.3c-37.8-1.6-67.7,7.1-92.9,23.6c5.5-22.8,19.7-41,46.5-51.2
		c-28.4-8.7-56.7-2.4-83.5,18.9c29.9-53.6,70.9-63,121.3-37c-3.2-15-18.9-27.6-41.7-37c37-1.6,62.2,6.3,70.1,32.3
		c18.1-14.2,37-11.8,55.9,0c-14.2,0-27.6,4.7-37,18.9c37.8,7.9,52,37,55.9,74.8c-17.3-19.7-36.2-35.4-55.9-37
		c8.7,19.7,7.1,37.8,0,55.9C285.9,231.6,274.9,210.3,256,195.3z"/>
	<path id="XMLID_7_" class="st4" d="M178,304c-0.8,1.6-0.8,2.4-1.6,3.9c19.7,1.6,52,7.9,61.4,9.5c0-3.2,0.8-6.3,0.8-9.5
		C230,306.4,196.9,301.7,178,304z"/>
	<path id="XMLID_8_" class="st4" d="M189.8,272.5c-0.8,0.8-0.8,2.4-1.6,3.2c15,3.2,40.2,9.5,52,13.4c0-3.2,0.8-6.3,0.8-8.7
		C229.2,277.3,204.8,272.5,189.8,272.5z"/>
	<path id="XMLID_9_" class="st4" d="M203.2,245.8c-0.8,0.8-0.8,1.6-1.6,2.4c11.8,3.2,31.5,8.7,42.5,12.6c0.8-3.2,0.8-5.5,1.6-7.9
		C235.5,249.7,217.4,245.8,203.2,245.8z"/>
	<path id="XMLID_10_" class="st4" d="M221.3,219c-0.8,0.8-1.6,1.6-2.4,3.2c10.2,2.4,24.4,6.3,32.3,10.2c0.8-2.4,1.6-4.7,2.4-7.1
		C245.8,222.1,232.4,219,221.3,219L221.3,219z"/>
	<path id="XMLID_11_" class="st5" d="M106.3,404.9h89l64.6-64.6C202.4,335.6,141,351.3,106.3,404.9z"/>
</g>
</svg>
